<svg data-v-423bf9ae="" xmlns="http://www.w3.org/2000/svg" viewBox="0 0 381.1904845252149 60" class="font"><!----><!----><defs data-v-423bf9ae=""><linearGradient data-v-423bf9ae="" gradientTransform="rotate(25)" id="5c39685e-70e2-453d-bf30-839a148124e2" x1="0%" y1="0%" x2="100%" y2="0%"><stop data-v-423bf9ae="" offset="0%" style="stop-color: rgb(165, 62, 51); stop-opacity: 1;"></stop><stop data-v-423bf9ae="" offset="100%" style="stop-color: rgb(186, 105, 201); stop-opacity: 1;"></stop></linearGradient></defs><g data-v-423bf9ae="" id="8a5574a9-8c84-4402-816e-7ef3ef9a5bf5" fill="url(#5c39685e-70e2-453d-bf30-839a148124e2)" transform="matrix(5.952380997433594,0,0,5.952380997433594,-3.3333316449405572,-30.654763181283457)"><path d="M7.11 12.14C7 12.08 6.90 12.03 6.65 11.98C6.71 12.22 6.69 12.49 6.51 12.75C6.36 13.01 5.96 13.27 5.33 13.31L2.35 13.52L7.22 7.22C7.63 6.72 7.71 6.36 7.71 5.73L7.48 5.15C7.01 5.31 6.41 5.32 5.87 5.31L3.02 5.21C1.29 5.15 0.56 5.88 0.56 6.80C0.56 7.27 0.78 7.66 1.11 7.87C1.34 8.05 1.67 8.18 1.99 8.23C1.90 7.98 1.93 7.76 2.10 7.43C2.28 7.11 2.74 6.97 3.19 6.94L5.89 6.73L1.09 13.13C0.69 13.62 0.62 14.01 0.62 14.66L0.87 15.12C1.37 14.95 1.62 14.94 2.14 14.95L5.84 15.05C7.34 15.08 8.04 14.42 8.04 13.50C8.04 12.84 7.67 12.36 7.11 12.14ZM16.04 13.55C15.95 13.69 15.76 13.73 15.67 13.73C15.36 13.73 15.20 13.48 15.20 12.99L15.20 10.63C15.20 8.44 14.27 7.59 12.18 7.59C10.35 7.59 9.17 8.20 9.17 9.32C9.17 10.05 9.69 10.63 10.60 10.63C11.00 10.63 11.40 10.51 11.62 10.29C11.23 10.07 11.13 9.63 11.13 9.25C11.13 8.51 11.52 8.22 12.07 8.22C12.95 8.22 13.23 8.99 13.23 10.50L13.23 10.85C12.70 10.88 12.03 10.93 11.28 11.14C10.12 11.48 8.83 12.17 8.83 13.51C8.83 14.59 9.62 15.16 10.68 15.16C11.97 15.16 12.88 14.38 13.37 13.33C13.48 14.69 14.04 15.16 14.90 15.16C15.72 15.16 16.23 14.70 16.23 14.15C16.23 13.99 16.17 13.75 16.04 13.55ZM11.69 13.92C11.16 13.97 10.95 13.51 10.95 13.03C10.95 12.47 11.27 12.03 11.72 11.77C12.15 11.52 12.74 11.47 13.29 11.47C13.29 12.84 12.40 13.85 11.69 13.92ZM27.51 12.98L27.51 10.39C27.51 8.54 26.81 7.59 25.38 7.59C24.26 7.59 23.53 8.23 23.20 9.21C22.95 8.15 22.33 7.59 21.21 7.59C20.01 7.59 19.32 8.25 18.98 9.28C18.91 8.13 18.38 7.59 17.54 7.59C16.81 7.59 16.38 8.02 16.38 8.61C16.38 8.82 16.44 9.02 16.56 9.21C16.65 9.07 16.83 9.02 16.94 9.02C17.19 9.02 17.33 9.24 17.33 9.76L17.35 14.14C17.35 14.81 17.82 15.23 18.45 15.23C19.05 15.23 19.39 14.97 19.56 14.81C19.24 14.06 19.24 13.55 19.24 11.76C19.24 9.55 19.78 8.47 20.55 8.47C21.32 8.47 21.48 9.28 21.48 10.70L21.48 14.24C21.48 14.85 21.94 15.23 22.54 15.23C23.04 15.23 23.37 15.02 23.62 14.80C23.38 14.18 23.34 13.40 23.34 12.98L23.34 11.69C23.35 9.55 24.01 8.47 24.75 8.47C25.54 8.47 25.58 9.52 25.58 10.70L25.58 14.24C25.58 14.85 26.05 15.23 26.68 15.23C27.19 15.23 27.54 15.02 27.79 14.80C27.55 14.18 27.51 13.40 27.51 12.98ZM35.48 12.14C35.36 12.08 35.27 12.03 35.01 11.98C35.07 12.22 35.06 12.49 34.87 12.75C34.72 13.01 34.33 13.27 33.70 13.31L30.72 13.52L35.59 7.22C35.99 6.72 36.08 6.36 36.08 5.73L35.84 5.15C35.38 5.31 34.78 5.32 34.23 5.31L31.39 5.21C29.65 5.15 28.92 5.88 28.92 6.80C28.92 7.27 29.15 7.66 29.47 7.87C29.71 8.05 30.03 8.18 30.35 8.23C30.27 7.98 30.30 7.76 30.46 7.43C30.65 7.11 31.11 6.97 31.56 6.94L34.26 6.73L29.46 13.13C29.05 13.62 28.98 14.01 28.98 14.66L29.23 15.12C29.74 14.95 29.99 14.94 30.51 14.95L34.20 15.05C35.70 15.08 36.40 14.42 36.40 13.50C36.40 12.84 36.04 12.36 35.48 12.14ZM44.41 13.55C44.31 13.69 44.13 13.73 44.03 13.73C43.72 13.73 43.57 13.48 43.57 12.99L43.57 10.63C43.57 8.44 42.63 7.59 40.54 7.59C38.71 7.59 37.53 8.20 37.53 9.32C37.53 10.05 38.05 10.63 38.96 10.63C39.37 10.63 39.76 10.51 39.98 10.29C39.59 10.07 39.49 9.63 39.49 9.25C39.49 8.51 39.89 8.22 40.43 8.22C41.31 8.22 41.59 8.99 41.59 10.50L41.59 10.85C41.06 10.88 40.39 10.93 39.65 11.14C38.49 11.48 37.20 12.17 37.20 13.51C37.20 14.59 37.98 15.16 39.05 15.16C40.33 15.16 41.24 14.38 41.73 13.33C41.85 14.69 42.41 15.16 43.26 15.16C44.09 15.16 44.59 14.70 44.59 14.15C44.59 13.99 44.53 13.75 44.41 13.55ZM40.05 13.92C39.52 13.97 39.31 13.51 39.31 13.03C39.31 12.47 39.63 12.03 40.08 11.77C40.52 11.52 41.10 11.47 41.65 11.47C41.65 12.84 40.77 13.85 40.05 13.92ZM55.87 12.98L55.87 10.39C55.87 8.54 55.17 7.59 53.75 7.59C52.63 7.59 51.90 8.23 51.56 9.21C51.31 8.15 50.69 7.59 49.57 7.59C48.37 7.59 47.68 8.25 47.35 9.28C47.28 8.13 46.75 7.59 45.91 7.59C45.18 7.59 44.74 8.02 44.74 8.61C44.74 8.82 44.80 9.02 44.93 9.21C45.01 9.07 45.19 9.02 45.30 9.02C45.56 9.02 45.70 9.24 45.70 9.76L45.71 14.14C45.71 14.81 46.19 15.23 46.82 15.23C47.42 15.23 47.75 14.97 47.92 14.81C47.60 14.06 47.60 13.55 47.60 11.76C47.60 9.55 48.15 8.47 48.92 8.47C49.69 8.47 49.84 9.28 49.84 10.70L49.84 14.24C49.84 14.85 50.30 15.23 50.90 15.23C51.41 15.23 51.73 15.02 51.98 14.80C51.74 14.18 51.70 13.40 51.70 12.98L51.70 11.69C51.72 9.55 52.37 8.47 53.12 8.47C53.90 8.47 53.94 9.52 53.94 10.70L53.94 14.24C53.94 14.85 54.42 15.23 55.05 15.23C55.55 15.23 55.90 15.02 56.15 14.80C55.92 14.18 55.87 13.40 55.87 12.98ZM64.41 13.55C64.32 13.69 64.13 13.73 64.04 13.73C63.73 13.73 63.57 13.48 63.57 12.99L63.57 10.63C63.57 8.44 62.64 7.59 60.55 7.59C58.72 7.59 57.54 8.20 57.54 9.32C57.54 10.05 58.06 10.63 58.97 10.63C59.37 10.63 59.77 10.51 59.99 10.29C59.60 10.07 59.50 9.63 59.50 9.25C59.50 8.51 59.89 8.22 60.44 8.22C61.32 8.22 61.60 8.99 61.60 10.50L61.60 10.85C61.07 10.88 60.40 10.93 59.65 11.14C58.49 11.48 57.20 12.17 57.20 13.51C57.20 14.59 57.99 15.16 59.05 15.16C60.34 15.16 61.25 14.38 61.74 13.33C61.85 14.69 62.41 15.16 63.27 15.16C64.09 15.16 64.60 14.70 64.60 14.15C64.60 13.99 64.54 13.75 64.41 13.55ZM60.06 13.92C59.53 13.97 59.32 13.51 59.32 13.03C59.32 12.47 59.64 12.03 60.09 11.77C60.52 11.52 61.11 11.47 61.66 11.47C61.66 12.84 60.77 13.85 60.06 13.92Z"></path></g><!----><!----></svg>